# This file uses centimeters as units for non-parametric coordinates.

g default
v -0.677091 0.235146 1.081952
v 0.677091 0.235146 1.081952
v -0.677091 0.268302 1.081952
v 0.677091 0.268302 1.081952
v -0.677091 0.268302 -1.081952
v 0.677091 0.268302 -1.081952
v -0.677091 0.235146 -1.081952
v 0.677091 0.235146 -1.081952
vt 0.967452 0.457452
vt 0.967452 0.001457
vt 0.978617 0.001457
vt 0.978617 0.457452
vt 0.001992 0.001457
vt 0.457987 0.001457
vt 0.457987 0.730110
vt 0.001992 0.730110
vt 0.986843 0.457452
vt 0.986843 0.001457
vt 0.998008 0.001457
vt 0.998008 0.457452
vt 0.465439 0.001457
vt 0.921433 0.001457
vt 0.921433 0.730110
vt 0.465439 0.730110
vt 0.928670 0.730110
vt 0.928670 0.001457
vt 0.939835 0.001457
vt 0.939835 0.730110
vt 0.948061 0.730110
vt 0.948061 0.001457
vt 0.959226 0.001457
vt 0.959226 0.730110
vn 0.000000 0.000000 1.000000
vn 0.000000 0.000000 1.000000
vn 0.000000 0.000000 1.000000
vn 0.000000 0.000000 1.000000
vn 0.000000 1.000000 0.000000
vn 0.000000 1.000000 0.000000
vn 0.000000 1.000000 0.000000
vn 0.000000 1.000000 0.000000
vn 0.000000 0.000000 -1.000000
vn 0.000000 0.000000 -1.000000
vn 0.000000 0.000000 -1.000000
vn 0.000000 0.000000 -1.000000
vn 0.000000 -1.000000 0.000000
vn 0.000000 -1.000000 0.000000
vn 0.000000 -1.000000 0.000000
vn 0.000000 -1.000000 0.000000
vn 1.000000 0.000000 0.000000
vn 1.000000 0.000000 0.000000
vn 1.000000 0.000000 0.000000
vn 1.000000 0.000000 0.000000
vn -1.000000 0.000000 0.000000
vn -1.000000 0.000000 0.000000
vn -1.000000 0.000000 0.000000
vn -1.000000 0.000000 0.000000
s off
g printer:paper
f 1/1/1 2/2/2 4/3/3 3/4/4
f 3/5/5 4/6/6 6/7/7 5/8/8
f 5/9/9 6/10/10 8/11/11 7/12/12
f 7/13/13 8/14/14 2/15/15 1/16/16
f 2/17/17 8/18/18 6/19/19 4/20/20
f 7/21/21 1/22/22 3/23/23 5/24/24
