# This file uses centimeters as units for non-parametric coordinates.

g default
v -2.205481 1.668851 1.805253
v 2.205481 1.668851 1.805253
v -2.205481 1.807859 1.805253
v 2.205481 1.807859 1.805253
v -2.205481 1.807859 -1.529915
v 2.205481 1.807859 -1.529915
v -2.205481 1.668851 -1.529915
v 2.205481 1.668851 -1.529915
vt 0.183230 0.019086
vt 0.766516 0.018600
vt 0.946603 0.365333
vt 0.183246 0.037461
vt 0.087222 0.508604
vt 0.670265 0.505863
vt 0.672337 0.946707
vt 0.089294 0.949449
vt 0.271286 0.961255
vt 0.854334 0.962115
vt 0.854308 0.980489
vt 0.271259 0.979629
vt 0.882789 0.492191
vt 0.299743 0.494505
vt 0.297994 0.053659
vt 0.881040 0.051346
vt 0.965021 0.805945
vt 0.946646 0.805947
vt 0.037005 0.739019
vt 0.035485 0.298173
vt 0.053859 0.298110
vt 0.055380 0.738956
vt 0.964965 0.364861
vt 0.766060 0.036963
vn 0.000000 0.000000 1.000000
vn 0.000000 0.000000 1.000000
vn 0.000000 0.000000 1.000000
vn 0.000000 0.000000 1.000000
vn 0.000000 1.000000 0.000000
vn 0.000000 1.000000 0.000000
vn 0.000000 1.000000 0.000000
vn 0.000000 1.000000 0.000000
vn 0.000000 0.000000 -1.000000
vn 0.000000 0.000000 -1.000000
vn 0.000000 0.000000 -1.000000
vn 0.000000 0.000000 -1.000000
vn 0.000000 -1.000000 0.000000
vn 0.000000 -1.000000 0.000000
vn 0.000000 -1.000000 0.000000
vn 0.000000 -1.000000 0.000000
vn 1.000000 0.000000 0.000000
vn 1.000000 0.000000 0.000000
vn 1.000000 0.000000 0.000000
vn 1.000000 0.000000 0.000000
vn -1.000000 0.000000 0.000000
vn -1.000000 0.000000 0.000000
vn -1.000000 0.000000 0.000000
vn -1.000000 0.000000 0.000000
s off
g table_base
f 1/1/1 2/2/2 4/24/3 3/4/4
f 3/5/5 4/6/6 6/7/7 5/8/8
f 5/9/9 6/10/10 8/11/11 7/12/12
f 7/13/13 8/14/14 2/15/15 1/16/16
f 2/23/17 8/17/18 6/18/19 4/3/20
f 7/19/21 1/20/22 3/21/23 5/22/24
