# This file uses centimeters as units for non-parametric coordinates.

g default
v -7.531892 0.000000 -26.588596
v 7.531892 0.000000 -26.588596
v -7.531892 13.732564 -26.588596
v 7.531892 13.732564 -26.588596
v -7.531892 0.000000 5.039794
v -7.531892 13.732564 5.039794
v 7.531892 0.000000 5.039794
v 7.531892 13.732564 5.039794
vt 0.318820 0.340921
vt 0.669973 0.341043
vt 0.669861 0.661164
vt 0.318708 0.661042
vt 0.868360 0.669971
vt 0.867919 0.990091
vt 0.130628 0.989077
vt 0.131068 0.668957
vt 0.134818 0.333327
vt 0.133884 0.013208
vt 0.871172 0.011055
vt 0.872107 0.331174
vn 0.000000 0.000000 1.000000
vn 0.000000 0.000000 1.000000
vn 0.000000 0.000000 1.000000
vn 0.000000 0.000000 1.000000
vn 1.000000 0.000000 0.000000
vn 1.000000 0.000000 0.000000
vn 1.000000 0.000000 0.000000
vn 1.000000 0.000000 0.000000
vn -1.000000 0.000000 0.000000
vn -1.000000 0.000000 0.000000
vn -1.000000 0.000000 0.000000
vn -1.000000 0.000000 0.000000
s off
g wall
f 1/1/1 2/2/2 4/3/3 3/4/4
f 1/5/5 3/6/6 6/7/7 5/8/8
f 4/9/9 2/10/10 7/11/11 8/12/12
